<?xml version="1.0" encoding="utf-8"?>
<!-- Generator: Adobe Illustrator 16.0.0, SVG Export Plug-In . SVG Version: 6.00 Build 0)  -->
<!DOCTYPE svg PUBLIC "-//W3C//DTD SVG 1.1//EN" "http://www.w3.org/Graphics/SVG/1.1/DTD/svg11.dtd">
<svg version="1.1" id="Layer_1" xmlns="http://www.w3.org/2000/svg" xmlns:xlink="http://www.w3.org/1999/xlink" x="0px" y="0px"
	 width="309.168px" height="41.667px" viewBox="0 0 309.168 41.667" enable-background="new 0 0 309.168 41.667"
	 xml:space="preserve">
<g>
	<g>
		<g>
			<path fill="#FFFFFF" d="M5.565,27.378v6.743H0.987V15.806h4.935c1.96,0,3.414,0.212,4.362,0.638
				c0.95,0.426,1.425,1.295,1.425,2.606v5.083c0,1.201-0.386,2.05-1.162,2.548C9.771,27.179,8.11,27.411,5.565,27.378z M7.13,23.788
				v-4.395c0-0.646-0.521-0.97-1.565-0.97v6.335C6.61,24.759,7.13,24.435,7.13,23.788z"/>
			<path fill="#FFFFFF" d="M12.514,30.991V19.202c0-2.376,1.796-3.563,5.393-3.563c3.543,0,5.315,1.178,5.315,3.537v11.789
				c0,1.064-0.494,1.885-1.482,2.459c-0.987,0.575-2.275,0.862-3.864,0.862C14.301,34.287,12.514,33.188,12.514,30.991z
				 M18.645,31.184V18.705c0-0.367-0.255-0.55-0.762-0.55c-0.527,0-0.791,0.183-0.791,0.55v12.479c0,0.365,0.264,0.55,0.791,0.55
				C18.39,31.733,18.645,31.549,18.645,31.184z"/>
			<path fill="#FFFFFF" d="M35.823,34.146h-4.697c-0.507-0.519-0.761-1.992-0.761-4.419v-0.026l0.03-1.098
				c0.029-1.525,0.044-2.303,0.044-2.337c0-0.622-0.487-0.933-1.462-0.933v8.787H24.28V15.806h5.802c1.322,0,2.474,0.26,3.451,0.778
				c0.979,0.52,1.47,1.342,1.47,2.466v2.195c0,1.423-0.97,2.386-2.907,2.888c1.948,0.393,2.923,1.401,2.923,3.028l-0.074,2.005
				C34.944,32.095,35.237,33.756,35.823,34.146z M30.424,22.138v-3.022c0-0.64-0.482-0.96-1.447-0.96v4.956
				C29.942,23.111,30.424,22.787,30.424,22.138z"/>
			<path fill="#FFFFFF" d="M46.261,18.194h-2.624v15.927h-4.698V18.194h-2.624v-2.389h9.946V18.194z"/>
			<path fill="#FFFFFF" d="M59.847,34.121h-4.654L54.4,29.204h-2.086l-0.802,4.917h-4.654l3.514-18.315h5.957L59.847,34.121z
				 M54.021,26.663l-0.676-5.468l-0.641,5.468H54.021z"/>
			<path fill="#FFFFFF" d="M69.452,34.121h-8.813V15.806h4.697v15.966h4.116V34.121z"/>
		</g>
		<g>
			<path fill="#FFFFFF" d="M91.983,34.121h-4.189V23.839l-2.446,10.282h-3.235l-2.803-10.282v10.282H75.64V15.806h6.038l2.148,9.502
				l1.863-9.502h6.293V34.121z"/>
			<path fill="#FFFFFF" d="M97.65,34.121h-4.697V15.806h4.697V34.121z"/>
			<path fill="#FFFFFF" d="M108.865,22.205H104.6v-3.628c0-0.299-0.216-0.447-0.649-0.447c-0.452,0-0.679,0.148-0.679,0.447v12.709
				c0,0.298,0.227,0.447,0.679,0.447c0.434,0,0.649-0.149,0.649-0.447v-4.522h4.265v4.65c0,0.868-0.497,1.564-1.491,2.088
				c-0.994,0.524-2.118,0.785-3.37,0.785c-3.62,0-5.428-1.099-5.428-3.296V19.202c0-2.376,1.808-3.563,5.428-3.563
				c3.241,0,4.861,1.081,4.861,3.243V22.205z"/>
			<path fill="#FFFFFF" d="M121.496,34.146h-4.696c-0.508-0.519-0.76-1.992-0.76-4.419v-0.026l0.029-1.098
				c0.029-1.525,0.043-2.303,0.043-2.337c0-0.622-0.486-0.933-1.46-0.933v8.787h-4.697V15.806h5.799c1.323,0,2.475,0.26,3.453,0.778
				c0.978,0.52,1.47,1.342,1.47,2.466v2.195c0,1.423-0.969,2.386-2.908,2.888c1.948,0.393,2.923,1.401,2.923,3.028l-0.075,2.005
				C120.616,32.095,120.911,33.756,121.496,34.146z M116.098,22.138v-3.022c0-0.64-0.483-0.96-1.446-0.96v4.956
				C115.615,23.111,116.098,22.787,116.098,22.138z"/>
			<path fill="#FFFFFF" d="M122.093,30.991V19.202c0-2.376,1.796-3.563,5.392-3.563c3.543,0,5.314,1.178,5.314,3.537v11.789
				c0,1.064-0.493,1.885-1.481,2.459c-0.987,0.575-2.275,0.862-3.864,0.862C123.879,34.287,122.093,33.188,122.093,30.991z
				 M128.221,31.184V18.705c0-0.367-0.253-0.55-0.76-0.55c-0.528,0-0.79,0.183-0.79,0.55v12.479c0,0.365,0.262,0.55,0.79,0.55
				C127.968,31.733,128.221,31.549,128.221,31.184z"/>
			<path fill="#FFFFFF" d="M142.986,34.121h-9.187V15.806h9.127v2.35h-4.43v4.956h3.996v2.223h-3.996v6.438h4.489V34.121z"/>
			<path fill="#FFFFFF" d="M160.121,34.121h-4.191V23.839l-2.445,10.282h-3.235l-2.805-10.282v10.282h-3.668V15.806h6.039
				l2.147,9.502l1.864-9.502h6.294V34.121z"/>
			<path fill="#FFFFFF" d="M165.743,27.378v6.743h-4.578V15.806h4.936c1.958,0,3.412,0.212,4.361,0.638
				c0.95,0.426,1.426,1.295,1.426,2.606v5.083c0,1.201-0.388,2.05-1.164,2.548C169.948,27.179,168.288,27.411,165.743,27.378z
				 M167.308,23.788v-4.395c0-0.646-0.521-0.97-1.565-0.97v6.335C166.787,24.759,167.308,24.435,167.308,23.788z"/>
			<path fill="#FFFFFF" d="M184.338,34.146h-4.697c-0.507-0.519-0.761-1.992-0.761-4.419v-0.026l0.029-1.098
				c0.029-1.525,0.046-2.303,0.046-2.337c0-0.622-0.487-0.933-1.462-0.933v8.787h-4.697V15.806h5.8c1.323,0,2.475,0.26,3.453,0.778
				c0.979,0.52,1.469,1.342,1.469,2.466v2.195c0,1.423-0.969,2.386-2.907,2.888c1.948,0.393,2.922,1.401,2.922,3.028l-0.075,2.005
				C183.458,32.095,183.751,33.756,184.338,34.146z M178.939,22.138v-3.022c0-0.64-0.482-0.96-1.445-0.96v4.956
				C178.457,23.111,178.939,22.787,178.939,22.138z"/>
			<path fill="#FFFFFF" d="M194.166,34.121h-9.186V15.806h9.126v2.35h-4.429v4.956h3.997v2.223h-3.997v6.438h4.488V34.121z"/>
			<path fill="#FFFFFF" d="M194.926,26.79h4.265v4.201c0,0.418,0.296,0.627,0.889,0.627c0.571,0,0.856-0.209,0.856-0.627V28.82
				c0-0.664-0.518-1.442-1.55-2.338c-2-1.66-3.242-2.774-3.729-3.347c-0.487-0.569-0.731-1.195-0.731-1.877v-2.057
				c0-2.376,1.812-3.563,5.437-3.563c3.246,0,4.869,1.081,4.869,3.243v3.169h-4.266v-3.373c0-0.365-0.239-0.549-0.715-0.549
				c-0.558,0-0.837,0.354-0.837,1.06l0.092,1.188c0,0.681,0.525,1.473,1.583,2.375c1.963,1.61,3.211,2.733,3.743,3.372
				c0.534,0.639,0.802,1.363,0.802,2.172v2.338c0,2.435-1.817,3.652-5.452,3.652c-3.504,0-5.256-1.105-5.256-3.321V26.79z"/>
			<path fill="#FFFFFF" d="M219.324,34.121h-4.655l-0.791-4.917h-2.088l-0.801,4.917h-4.654l3.514-18.315h5.955L219.324,34.121z
				 M213.497,26.663l-0.675-5.468l-0.641,5.468H213.497z"/>
			<path fill="#FFFFFF" d="M231.671,34.146h-4.698c-0.506-0.519-0.76-1.992-0.76-4.419v-0.026l0.029-1.098
				c0.029-1.525,0.045-2.303,0.045-2.337c0-0.622-0.486-0.933-1.461-0.933v8.787h-4.697V15.806h5.801
				c1.322,0,2.474,0.26,3.452,0.778c0.979,0.52,1.47,1.342,1.47,2.466v2.195c0,1.423-0.97,2.386-2.91,2.888
				c1.949,0.393,2.925,1.401,2.925,3.028l-0.075,2.005C230.792,32.095,231.085,33.756,231.671,34.146z M226.272,22.138v-3.022
				c0-0.64-0.482-0.96-1.445-0.96v4.956C225.79,23.111,226.272,22.787,226.272,22.138z"/>
			<path fill="#FFFFFF" d="M236.934,34.121h-4.697V15.806h4.697V34.121z"/>
			<path fill="#FFFFFF" d="M237.832,30.991V19.202c0-2.376,1.796-3.563,5.39-3.563c3.545,0,5.317,1.178,5.317,3.537v11.789
				c0,1.064-0.494,1.885-1.482,2.459c-0.987,0.575-2.276,0.862-3.866,0.862C239.618,34.287,237.832,33.188,237.832,30.991z
				 M243.959,31.184V18.705c0-0.367-0.253-0.55-0.759-0.55c-0.528,0-0.791,0.183-0.791,0.55v12.479c0,0.365,0.263,0.55,0.791,0.55
				C243.707,31.733,243.959,31.549,243.959,31.184z"/>
			<path fill="#FFFFFF" d="M249.522,26.79h4.265v4.201c0,0.418,0.296,0.627,0.888,0.627c0.571,0,0.857-0.209,0.857-0.627V28.82
				c0-0.664-0.518-1.442-1.552-2.338c-1.998-1.66-3.24-2.774-3.728-3.347c-0.487-0.569-0.73-1.195-0.73-1.877v-2.057
				c0-2.376,1.812-3.563,5.436-3.563c3.246,0,4.869,1.081,4.869,3.243v3.169h-4.266v-3.373c0-0.365-0.238-0.549-0.714-0.549
				c-0.558,0-0.838,0.354-0.838,1.06l0.09,1.188c0,0.681,0.528,1.473,1.586,2.375c1.963,1.61,3.211,2.733,3.743,3.372
				c0.534,0.639,0.801,1.363,0.801,2.172v2.338c0,2.435-1.816,3.652-5.451,3.652c-3.504,0-5.256-1.105-5.256-3.321V26.79z"/>
		</g>
	</g>
	<g>
		<path fill="#FFFFFF" d="M273.368,16.436c0.012,0,0.052,0.006,0.118,0.017c0.068,0.013,0.142,0.021,0.22,0.025
			c0.08,0.007,0.156,0.015,0.229,0.025c0.073,0.013,0.116,0.018,0.126,0.018c0.058,0,0.142,0.008,0.254,0.025
			c0.114,0.018,0.171,0.081,0.171,0.194v1.49c0.19-0.045,0.411-0.149,0.66-0.313c0.248-0.163,0.541-0.33,0.88-0.5
			c0.339-0.169,0.717-0.31,1.134-0.422c0.417-0.114,0.897-0.142,1.439-0.085c0.835,0.169,1.438,0.369,1.811,0.601
			c0.373,0.231,0.57,0.485,0.594,0.762c0.021,0.276-0.094,0.573-0.347,0.889c-0.255,0.315-0.591,0.641-1.009,0.974
			c-0.417,0.333-0.883,0.663-1.396,0.99c-0.514,0.327-1.017,0.646-1.508,0.956c-0.49,0.312-0.938,0.603-1.345,0.872
			c-0.406,0.271-0.711,0.515-0.914,0.728c0.181,0.079,0.442,0.207,0.787,0.382c0.344,0.175,0.722,0.366,1.134,0.575
			s0.84,0.432,1.287,0.669c0.445,0.237,0.865,0.455,1.261,0.651c0.395,0.198,0.75,0.372,1.066,0.524s0.542,0.252,0.678,0.297
			c0.111,0.057,0.22,0.107,0.32,0.152c0.079,0.057,0.156,0.107,0.229,0.152s0.11,0.091,0.11,0.136s-0.015,0.107-0.042,0.186
			c-0.029,0.079-0.072,0.152-0.129,0.221c-0.055,0.067-0.114,0.127-0.176,0.177c-0.063,0.051-0.123,0.077-0.18,0.077
			c-0.022,0-0.047-0.003-0.075-0.008c-0.028-0.006-0.049-0.01-0.059-0.01c-0.023-0.011-0.1-0.048-0.229-0.109
			s-0.265-0.133-0.406-0.212c-0.141-0.079-0.277-0.149-0.406-0.212c-0.13-0.063-0.212-0.099-0.245-0.109
			c-0.124-0.045-0.324-0.133-0.602-0.262c-0.275-0.131-0.586-0.277-0.931-0.44c-0.345-0.165-0.708-0.342-1.092-0.533
			c-0.384-0.192-0.748-0.373-1.093-0.542c-0.344-0.169-0.654-0.316-0.931-0.44c-0.277-0.124-0.477-0.198-0.601-0.22v5.18h-0.762
			L273.368,16.436z M274.486,19.347c-0.023,0.204-0.046,0.44-0.069,0.712c-0.021,0.271-0.047,0.553-0.075,0.847
			c-0.028,0.293-0.051,0.587-0.068,0.88c-0.017,0.293-0.024,0.564-0.024,0.813c0.044-0.058,0.202-0.153,0.474-0.289
			c0.271-0.135,0.599-0.305,0.982-0.508c0.383-0.203,0.798-0.429,1.244-0.677c0.445-0.247,0.865-0.505,1.261-0.771
			c0.395-0.266,0.742-0.527,1.041-0.787c0.3-0.259,0.491-0.499,0.575-0.72c0.085-0.22,0.04-0.42-0.135-0.601
			c-0.176-0.181-0.539-0.321-1.092-0.423c-0.305-0.023-0.651-0.006-1.041,0.051c-0.39,0.056-0.778,0.151-1.169,0.287
			c-0.389,0.136-0.754,0.303-1.091,0.5C274.959,18.859,274.689,19.088,274.486,19.347z"/>
		<path fill="#FFFFFF" d="M283.475,29.386c0.021-0.112,0.163-0.22,0.423-0.321c0.259-0.102,0.581-0.209,0.965-0.321
			c0.383-0.112,0.808-0.237,1.27-0.373c0.463-0.135,0.909-0.287,1.338-0.457c0.429-0.169,0.82-0.36,1.177-0.575
			c0.355-0.214,0.617-0.463,0.786-0.745c0-0.169-0.109-0.299-0.329-0.389c-0.221-0.091-0.514-0.167-0.881-0.229
			c-0.367-0.062-0.784-0.112-1.253-0.152c-0.469-0.039-0.947-0.095-1.438-0.169c-0.491-0.073-0.971-0.164-1.439-0.271
			c-0.468-0.107-0.886-0.26-1.252-0.457c-0.368-0.197-0.66-0.448-0.881-0.753c-0.22-0.305-0.33-0.678-0.33-1.118
			s0.096-0.877,0.288-1.312c0.19-0.435,0.448-0.855,0.77-1.262c0.322-0.405,0.689-0.784,1.101-1.135
			c0.412-0.349,0.844-0.653,1.296-0.914c0.451-0.259,0.899-0.462,1.345-0.608c0.446-0.147,0.861-0.221,1.245-0.221
			c0.102,0,0.208-0.002,0.321-0.008c0.112-0.006,0.211,0,0.296,0.017c0.084,0.017,0.155,0.059,0.212,0.128
			c0.057,0.066,0.084,0.168,0.084,0.305c0,0.326-0.106,0.561-0.321,0.701c-0.214,0.143-0.474,0.212-0.778,0.212l-0.66-0.474
			c-0.261,0-0.545,0.072-0.855,0.22c-0.31,0.147-0.626,0.342-0.947,0.584c-0.322,0.243-0.635,0.522-0.939,0.838
			s-0.573,0.644-0.805,0.982c-0.231,0.338-0.418,0.677-0.559,1.016s-0.211,0.644-0.211,0.914c0,0.396,0.109,0.714,0.33,0.956
			c0.22,0.243,0.513,0.435,0.88,0.576s0.787,0.245,1.261,0.313c0.475,0.066,0.954,0.124,1.439,0.169s0.965,0.087,1.438,0.127
			c0.475,0.039,0.895,0.109,1.261,0.211c0.367,0.103,0.66,0.238,0.881,0.407s0.331,0.4,0.331,0.693
			c0.123,0.181,0.098,0.387-0.077,0.618s-0.445,0.463-0.813,0.693c-0.367,0.232-0.802,0.464-1.303,0.695
			c-0.503,0.23-1.02,0.44-1.55,0.625c-0.53,0.188-1.044,0.346-1.54,0.475c-0.497,0.13-0.92,0.212-1.27,0.245
			c-0.103,0-0.189-0.033-0.263-0.102C283.443,29.674,283.43,29.557,283.475,29.386z"/>
		<path fill="#FFFFFF" d="M292.024,29.741c0-0.914,0.005-1.811,0.016-2.691c0.012-0.881,0.006-1.754-0.016-2.624
			c-0.023-0.868-0.068-1.74-0.136-2.615c-0.068-0.875-0.17-1.764-0.306-2.666c0-0.023-0.013-0.068-0.041-0.135
			c-0.028-0.069-0.055-0.14-0.077-0.213s-0.045-0.138-0.066-0.194c-0.023-0.057-0.034-0.097-0.034-0.118
			c0-0.057,0.019-0.124,0.059-0.204c0.039-0.079,0.091-0.154,0.152-0.228s0.133-0.133,0.211-0.178
			c0.079-0.045,0.158-0.063,0.238-0.051c0.135,0.033,0.245,0.118,0.33,0.253c0.084,0.136,0.149,0.286,0.194,0.449
			c0.046,0.164,0.076,0.325,0.093,0.483c0.018,0.156,0.026,0.271,0.026,0.337c0.337-0.181,0.72-0.374,1.142-0.583
			c0.424-0.209,0.857-0.4,1.304-0.575c0.445-0.176,0.892-0.322,1.338-0.44c0.445-0.119,0.865-0.178,1.261-0.178
			c0,0.101-0.02,0.191-0.059,0.271c-0.04,0.079-0.116,0.146-0.229,0.204l-4.756,2.387v0.659c0.011,0.125,0.024,0.339,0.042,0.644
			c0.016,0.305,0.036,0.63,0.06,0.974c0.021,0.345,0.042,0.672,0.059,0.981c0.017,0.311,0.03,0.522,0.042,0.635l3.487-1.946
			l0.085-0.102c0.057-0.068,0.13-0.129,0.22-0.187c0.091-0.057,0.184-0.087,0.28-0.094c0.096-0.006,0.188,0.055,0.279,0.179
			c0,0.203-0.103,0.4-0.305,0.593c-0.204,0.191-0.458,0.383-0.763,0.576c-0.305,0.19-0.635,0.378-0.99,0.558
			c-0.355,0.181-0.686,0.355-0.99,0.524s-0.56,0.339-0.762,0.509c-0.203,0.169-0.305,0.327-0.305,0.474v3.268
			c0.147,0.056,0.353,0.031,0.618-0.077c0.265-0.106,0.561-0.257,0.889-0.447c0.326-0.192,0.666-0.415,1.016-0.669
			c0.35-0.255,0.69-0.494,1.023-0.72c0.334-0.226,0.645-0.429,0.931-0.609c0.289-0.181,0.528-0.289,0.72-0.322
			c0.113,0,0.215,0.023,0.306,0.068c0.09,0.045,0.135,0.135,0.135,0.27c0,0.136-0.078,0.244-0.237,0.322
			c-0.395,0.237-0.849,0.533-1.362,0.889c-0.514,0.356-1.035,0.712-1.565,1.067s-1.053,0.676-1.566,0.965
			c-0.514,0.287-0.956,0.477-1.328,0.566c-0.147,0-0.266-0.012-0.355-0.033C292.239,29.922,292.136,29.855,292.024,29.741z"/>
	</g>
	<path fill="#FFFFFF" d="M308.385,33.218c0.105-1.152,0.131-2.788,0.131-2.788l-0.049-0.99l-0.006-0.805l-0.047-1.525l-0.004-0.138
		c-0.001-0.021-0.072-0.244-0.081-0.244l-0.069,0.003l-0.272,0.097l-0.549,0.062l-0.624,0.037l-2.214,0.068l-1.779,0.051
		c-0.022,0.007-0.072,0.041-0.082,0.05c-0.552,0.477-0.2,0.859,0.041,1.006c0.034,0.024,0.044,0.022,0.07,0.023l1.779-0.046
		l2.212-0.06l0.407-0.011c-0.113,0.137-0.239,0.294-0.385,0.486c-0.4,0.55-1.001,1.12-1.403,1.617
		c-0.452,0.46-0.797,0.783-0.799,0.783l-0.4,0.453c-0.063,0.078-0.143,0.142-0.215,0.212l-0.354,0.328
		c-1.102,1.078-2.393,1.947-3.753,2.671c-2.733,1.45-5.832,2.165-8.946,2.403c-3.127,0.238-6.294,0.016-9.408-0.489
		c-3.117-0.5-6.199-1.284-9.195-2.29c-0.668-0.222-1.33-0.463-1.98-0.714c-0.03-0.006-0.095,0.008-0.111,0.013
		c-0.819,0.268-0.638,0.848-0.426,1.127c0.028,0.044,0.041,0.048,0.069,0.06c0.677,0.262,1.355,0.507,2.036,0.734
		c3.014,1.014,6.1,1.798,9.242,2.314c1.57,0.261,3.154,0.452,4.748,0.545c1.593,0.104,3.195,0.119,4.794,0.003
		c1.601-0.095,3.2-0.325,4.768-0.709c1.572-0.358,3.105-0.916,4.563-1.634c1.473-0.692,2.819-1.642,4.052-2.702l0.925-0.863
		c0.152-0.149,0.287-0.315,0.431-0.474c0,0,0.145-0.185,0.358-0.457c0.222-0.27,0.499-0.636,0.729-1.031
		c0.24-0.383,0.479-0.763,0.651-1.04c0.058-0.115,0.102-0.205,0.137-0.279l0.021,0.419l0.044,0.85c0,0,0.331,2.992,0.349,2.865
		C307.979,34.405,308.254,35.168,308.385,33.218z"/>
	<path fill="#FFFFFF" d="M265.243,13.665c-0.023,1.088,0.06,2.627,0.06,2.627l0.113,0.928l0.09,0.751l0.175,1.428l0.024,0.237
		c0.003,0.02,0.013,0.172,0.02,0.171l0.066-0.006l0.248-0.136l0.514-0.104l0.583-0.083l2.072-0.214l1.667-0.168
		c0.022-0.007,0.067-0.045,0.075-0.052c0.486-0.485,0.132-0.822-0.104-0.942c-0.035-0.021-0.045-0.021-0.067-0.02l-1.668,0.162
		l-2.074,0.202l-0.383,0.036c0.098-0.134,0.205-0.292,0.33-0.481c0.34-0.542,0.867-1.12,1.211-1.612
		c0.393-0.461,0.696-0.787,0.696-0.787l0.347-0.453c0.055-0.078,0.126-0.142,0.188-0.213l0.311-0.332
		c0.964-1.085,2.117-1.987,3.347-2.758c2.472-1.543,5.335-2.42,8.245-2.849c2.92-0.431,5.909-0.431,8.869-0.165
		c2.96,0.264,5.905,0.798,8.787,1.543c0.643,0.165,1.279,0.346,1.907,0.539c0.029,0.004,0.089-0.013,0.104-0.019
		c0.753-0.307,0.542-0.839,0.325-1.088c-0.029-0.04-0.04-0.042-0.069-0.052c-0.652-0.198-1.304-0.386-1.961-0.555
		c-2.896-0.75-5.849-1.284-8.833-1.561c-1.491-0.142-2.991-0.216-4.494-0.197c-1.504,0.006-3.011,0.101-4.505,0.313
		c-1.497,0.196-2.983,0.519-4.43,0.983c-1.453,0.442-2.857,1.066-4.18,1.836c-1.336,0.747-2.537,1.729-3.625,2.807l-0.812,0.872
		c-0.135,0.149-0.249,0.315-0.373,0.474c0,0-0.123,0.183-0.307,0.453c-0.19,0.267-0.427,0.631-0.618,1.016
		c-0.198,0.376-0.396,0.75-0.54,1.021c-0.047,0.11-0.083,0.199-0.111,0.27l-0.048-0.392l-0.098-0.795c0,0-0.509-2.788-0.518-2.668
		C265.543,12.523,265.236,11.825,265.243,13.665z"/>
</g>
</svg>
