<?xml version="1.0" encoding="utf-8"?>
<!-- Generator: Adobe Illustrator 16.0.0, SVG Export Plug-In . SVG Version: 6.00 Build 0)  -->
<!DOCTYPE svg PUBLIC "-//W3C//DTD SVG 1.1//EN" "http://www.w3.org/Graphics/SVG/1.1/DTD/svg11.dtd">
<svg version="1.1" id="Layer_1" xmlns="http://www.w3.org/2000/svg" xmlns:xlink="http://www.w3.org/1999/xlink" x="0px" y="0px"
	 width="1528px" height="226px" viewBox="0 0 1528 226" enable-background="new 0 0 1528 226" xml:space="preserve">
<g>
	<g>
		<g>
			<path fill="#FFFFFF" d="M222.665,103.065v28.786h-19.544V53.667h21.074c8.365,0,14.564,0.91,18.617,2.726
				c4.053,1.815,6.082,5.524,6.082,11.121v21.703c0,5.123-1.648,8.748-4.963,10.875
				C240.613,102.217,233.522,103.208,222.665,103.065z M229.346,87.741V68.984c0-2.758-2.226-4.142-6.688-4.142v27.042
				C227.12,91.887,229.346,90.507,229.346,87.741z"/>
			<path fill="#FFFFFF" d="M252.327,118.494V68.167c0-10.144,7.666-15.209,23.017-15.209c15.12,0,22.689,5.034,22.689,15.103v50.327
				c0,4.544-2.109,8.045-6.326,10.495c-4.215,2.455-9.715,3.683-16.495,3.683C259.953,132.563,252.327,127.87,252.327,118.494z
				 M278.494,119.31V66.042c0-1.559-1.086-2.348-3.248-2.348c-2.255,0-3.376,0.783-3.376,2.348v53.268
				c0,1.563,1.121,2.35,3.376,2.35C277.409,121.659,278.494,120.873,278.494,119.31z"/>
			<path fill="#FFFFFF" d="M351.819,131.96h-20.045c-2.163-2.217-3.244-8.507-3.244-18.866v-0.109l0.119-4.689
				c0.128-6.508,0.192-9.828,0.192-9.976c0-2.653-2.079-3.979-6.235-3.979v37.511h-20.048V53.666h24.764
				c5.645,0,10.556,1.106,14.736,3.325c4.177,2.22,6.269,5.725,6.269,10.523v9.378c0,6.069-4.138,10.177-12.41,12.325
				c8.314,1.673,12.476,5.978,12.476,12.922l-0.317,8.56C348.068,123.201,349.317,130.292,351.819,131.96z M328.778,80.699V67.797
				c0-2.731-2.056-4.098-6.175-4.098v21.157C326.722,84.854,328.778,83.467,328.778,80.699z"/>
			<path fill="#FFFFFF" d="M396.386,63.858h-11.2v67.993h-20.057V63.858h-11.199v-10.19h42.456V63.858L396.386,63.858z"/>
			<path fill="#FFFFFF" d="M454.374,131.851h-19.868l-3.383-20.989h-8.9l-3.424,20.989h-19.866l14.995-78.184h25.428
				L454.374,131.851z M429.507,100.01l-2.887-23.333l-2.735,23.333H429.507z"/>
			<path fill="#FFFFFF" d="M495.372,131.851h-37.628V53.667h20.057v68.156h17.571V131.851L495.372,131.851z"/>
		</g>
		<g>
			<path fill="#FFFFFF" d="M591.559,131.851h-17.885V87.96l-10.446,43.891h-13.812L537.45,87.96v43.891h-15.66V53.667h25.778
				l9.167,40.561l7.958-40.561h26.865L591.559,131.851L591.559,131.851z"/>
			<path fill="#FFFFFF" d="M615.746,131.851h-20.051V53.667h20.051V131.851z"/>
			<path fill="#FFFFFF" d="M663.613,80.98h-18.202V65.5c0-1.276-0.921-1.911-2.769-1.911c-1.936,0-2.898,0.64-2.898,1.911v54.251
				c0,1.271,0.963,1.909,2.898,1.909c1.849,0,2.769-0.637,2.769-1.909v-19.306h18.202v19.85c0,3.703-2.122,6.679-6.365,8.911
				c-4.238,2.239-9.038,3.354-14.385,3.354c-15.449,0-23.17-4.695-23.17-14.072V68.167c0-10.144,7.721-15.209,23.17-15.209
				c13.834,0,20.75,4.616,20.75,13.85V80.98L663.613,80.98z"/>
			<path fill="#FFFFFF" d="M717.53,131.96h-20.047c-2.164-2.217-3.248-8.507-3.248-18.866v-0.109l0.132-4.689
				c0.12-6.508,0.185-9.828,0.185-9.976c0-2.653-2.073-3.979-6.23-3.979v37.511h-20.051V53.666h24.755
				c5.646,0,10.56,1.106,14.74,3.325c4.181,2.22,6.271,5.725,6.271,10.523v9.378c0,6.069-4.132,10.177-12.415,12.325
				c8.319,1.673,12.478,5.978,12.478,12.922l-0.317,8.56C713.78,123.201,715.035,130.292,717.53,131.96z M694.487,80.699V67.797
				c0-2.731-2.055-4.098-6.175-4.098v21.157C692.433,84.854,694.487,83.467,694.487,80.699z"/>
			<path fill="#FFFFFF" d="M720.082,118.494V68.167c0-10.144,7.67-15.209,23.019-15.209c15.123,0,22.682,5.034,22.682,15.103v50.327
				c0,4.544-2.105,8.045-6.316,10.495c-4.217,2.455-9.72,3.683-16.501,3.683C727.712,132.563,720.082,127.87,720.082,118.494z
				 M746.244,119.31V66.042c0-1.559-1.082-2.348-3.242-2.348c-2.253,0-3.377,0.783-3.377,2.348v53.268
				c0,1.563,1.124,2.35,3.377,2.35C745.162,121.659,746.244,120.873,746.244,119.31z"/>
			<path fill="#FFFFFF" d="M809.271,131.851h-39.216V53.667h38.961v10.027H790.11v21.16h17.061v9.487H790.11v27.477h19.168v10.034
				H809.271z"/>
			<path fill="#FFFFFF" d="M882.416,131.851h-17.895V87.96l-10.437,43.891h-13.814L828.303,87.96v43.891h-15.657V53.667h25.778
				l9.165,40.561l7.96-40.561h26.864v78.184H882.416z"/>
			<path fill="#FFFFFF" d="M906.409,103.065v28.786h-19.538V53.667h21.066c8.366,0,14.571,0.91,18.618,2.726
				c4.056,1.815,6.088,5.524,6.088,11.121v21.703c0,5.123-1.655,8.748-4.973,10.875
				C924.363,102.217,917.277,103.208,906.409,103.065z M913.096,87.741V68.984c0-2.758-2.232-4.142-6.688-4.142v27.042
				C910.863,91.887,913.096,90.507,913.096,87.741z"/>
			<path fill="#FFFFFF" d="M985.79,131.96h-20.054c-2.155-2.217-3.246-8.507-3.246-18.866v-0.109l0.13-4.689
				c0.125-6.508,0.192-9.828,0.192-9.976c0-2.653-2.08-3.979-6.24-3.979v37.511h-20.046V53.666h24.753
				c5.651,0,10.565,1.106,14.748,3.325c4.178,2.22,6.27,5.725,6.27,10.523v9.378c0,6.069-4.14,10.177-12.414,12.325
				c8.317,1.673,12.475,5.978,12.475,12.922l-0.313,8.56C982.036,123.201,983.288,130.292,985.79,131.96z M962.745,80.699V67.797
				c0-2.731-2.062-4.098-6.171-4.098v21.157C960.684,84.854,962.745,83.467,962.745,80.699z"/>
			<path fill="#FFFFFF" d="M1027.74,131.851h-39.212V53.667h38.958v10.027h-18.9v21.16h17.059v9.487h-17.059v27.477h19.156v10.034
				H1027.74z"/>
			<path fill="#FFFFFF" d="M1030.987,100.555h18.204v17.939c0,1.78,1.266,2.672,3.79,2.672c2.44,0,3.663-0.892,3.663-2.672v-9.269
				c0-2.833-2.212-6.158-6.618-9.979c-8.535-7.084-13.839-11.848-15.916-14.283c-2.081-2.434-3.123-5.112-3.123-8.015v-8.78
				c0-10.144,7.736-15.21,23.208-15.21c13.856,0,20.783,4.617,20.783,13.851v13.521h-18.206V65.937c0-1.562-1.022-2.348-3.055-2.348
				c-2.379,0-3.571,1.511-3.571,4.525l0.39,5.075c0,2.903,2.246,6.284,6.764,10.136c8.379,6.873,13.704,11.672,15.976,14.395
				c2.276,2.724,3.415,5.814,3.415,9.273v9.98c0,10.4-7.754,15.594-23.271,15.594c-14.95,0-22.438-4.724-22.438-14.179v-17.834
				L1030.987,100.555L1030.987,100.555z"/>
			<path fill="#FFFFFF" d="M1135.133,131.851h-19.875l-3.375-20.989h-8.909l-3.425,20.989h-19.868l14.998-78.184h25.422
				L1135.133,131.851z M1110.266,100.01l-2.886-23.333l-2.735,23.333H1110.266z"/>
			<path fill="#FFFFFF" d="M1187.843,131.96h-20.054c-2.156-2.217-3.245-8.507-3.245-18.866v-0.109l0.127-4.689
				c0.127-6.508,0.19-9.828,0.19-9.976c0-2.653-2.077-3.979-6.234-3.979v37.511h-20.055V53.666h24.771
				c5.638,0,10.554,1.106,14.735,3.325c4.18,2.22,6.27,5.725,6.27,10.523v9.378c0,6.069-4.141,10.177-12.413,12.325
				c8.317,1.673,12.481,5.978,12.481,12.922l-0.321,8.56C1184.089,123.201,1185.339,130.292,1187.843,131.96z M1164.798,80.699
				V67.797c0-2.731-2.063-4.098-6.174-4.098v21.157C1162.734,84.854,1164.798,83.467,1164.798,80.699z"/>
			<path fill="#FFFFFF" d="M1210.309,131.851h-20.053V53.667h20.053V131.851z"/>
			<path fill="#FFFFFF" d="M1214.135,118.494V68.167c0-10.144,7.671-15.209,23.012-15.209c15.129,0,22.693,5.034,22.693,15.103
				v50.327c0,4.544-2.109,8.045-6.324,10.495c-4.217,2.455-9.719,3.683-16.502,3.683
				C1221.761,132.563,1214.135,127.87,1214.135,118.494z M1240.302,119.31V66.042c0-1.559-1.09-2.348-3.248-2.348
				c-2.255,0-3.374,0.783-3.374,2.348v53.268c0,1.563,1.119,2.35,3.374,2.35C1239.212,121.659,1240.302,120.873,1240.302,119.31z"/>
			<path fill="#FFFFFF" d="M1264.041,100.555h18.197v17.939c0,1.78,1.269,2.672,3.797,2.672c2.438,0,3.656-0.892,3.656-2.672v-9.269
				c0-2.833-2.204-6.158-6.619-9.979c-8.531-7.084-13.834-11.848-15.912-14.283c-2.081-2.434-3.119-5.112-3.119-8.015v-8.78
				c0-10.144,7.734-15.21,23.201-15.21c13.856,0,20.791,4.617,20.791,13.851v13.521h-18.217V65.937c0-1.562-1.014-2.348-3.045-2.348
				c-2.379,0-3.574,1.511-3.574,4.525l0.38,5.075c0,2.903,2.259,6.284,6.769,10.136c8.382,6.873,13.709,11.672,15.979,14.395
				c2.281,2.728,3.417,5.814,3.417,9.273v9.98c0,10.4-7.757,15.594-23.271,15.594c-14.953,0-22.439-4.724-22.439-14.179v-17.834
				L1264.041,100.555L1264.041,100.555z"/>
		</g>
		<path fill="#FFFFFF" d="M145.827,78.266"/>
		<path fill="#FFFFFF" d="M145.827,79.64c0,0-4.111-31.938-36.052-32.28c-31.938-0.343-70.41,16.139-74.179,56.32
			c0,0,1.372,30.907,49.109,28.164c0,0,29.194-1.72,45.678-14.768c0,0-21.987,23.354-65.95,22.322c0,0-40.867-3.092-43.611-36.062
			c-2.743-32.964,56.944-68.581,93.761-63.531c45.246,6.204,47.737,35.03,48.081,38.461L145.827,79.64z"/>
		<path fill="#FFFFFF" d="M14.648,88.111c0,0,14.229-35.714,60.687-47.618c0,0-30.781-0.87-60.687,23.81
			C14.648,64.303,12.615,84.342,14.648,88.111z"/>
		<path fill="#FFFFFF" d="M167.139,87.646c0,0-12.226,36.445-57.944,50.919c0,0,30.781-0.841,59.268-27.142
			C168.453,111.42,169.377,91.301,167.139,87.646z"/>
		<polygon fill="#FFFFFF" points="122.368,54.649 64.23,92.977 87.519,98.901 65.313,124.77 75.335,130.872 92.77,103.761 
			104.076,120.634 		"/>
	</g>
	<g>
		<path fill="#006BB2" d="M736.926,199.732c-1.798,0-3.273-0.216-4.414-0.647l0.128-5.227c1.457,0.365,2.783,0.544,3.976,0.544
			c3.486,0,5.687-2.165,6.604-6.499l7.77-36.784h6.19l-7.925,37.592c-0.799,3.759-2.199,6.541-4.199,8.326
			C743.049,198.837,740.342,199.732,736.926,199.732z"/>
		<path fill="#006BB2" d="M772.598,160.382l-3.351,15.856c-0.535,2.441-0.807,4.114-0.807,5.014c0,2.308,1.102,3.461,3.303,3.461
			c1.248,0,2.483-0.498,3.716-1.491c1.234-0.981,2.322-2.391,3.273-4.221c0.957-1.829,1.693-3.976,2.215-6.435l2.57-12.191h6.056
			l-6.056,28.751h-4.809l0.544-5.328h-0.209c-1.421,2.011-2.902,3.487-4.443,4.436c-1.54,0.939-3.203,1.419-4.989,1.419
			c-2.322,0-4.115-0.663-5.379-1.975c-1.267-1.317-1.9-3.208-1.9-5.673c0-1.091,0.104-2.166,0.312-3.229
			c0.21-1.073,0.42-2.141,0.62-3.212l3.197-15.18h6.137V160.382L772.598,160.382z"/>
		<path fill="#006BB2" d="M811.759,189.127l3.688-17.47c0.311-1.558,0.467-2.693,0.467-3.409c0-2.269-1.116-3.406-3.355-3.406
			c-1.247,0-2.476,0.496-3.686,1.48c-1.214,0.991-2.307,2.415-3.275,4.278c-0.975,1.863-1.702,3.971-2.184,6.326l-2.55,12.19h-6.136
			l6.136-28.749h4.784l-0.546,5.326h0.233c1.439-2.048,2.917-3.53,4.444-4.454c1.525-0.933,3.177-1.396,4.959-1.396
			c2.325,0,4.121,0.665,5.396,1.975c1.277,1.32,1.91,3.193,1.91,5.615c0,1.195-0.198,2.768-0.595,4.706l-3.565,16.973h-6.129v0.015
			H811.759z"/>
		<path fill="#006BB2" d="M839.404,184.714c1.176,0,2.481-0.27,3.923-0.811v4.628c-0.608,0.291-1.433,0.551-2.471,0.779
			c-1.042,0.224-2.081,0.337-3.123,0.337c-4.752,0-7.116-2.138-7.116-6.424c0-0.984,0.135-2.123,0.414-3.403l3.146-14.818h-4.209
			l0.545-2.859l4.938-2.13l3.357-6.032h3.788l-1.35,6.395h7.252l-1.014,4.628h-7.197l-3.166,14.87
			c-0.229,0.949-0.348,1.751-0.348,2.391c0,0.744,0.221,1.34,0.657,1.784C837.86,184.487,838.519,184.714,839.404,184.714z"/>
		<path fill="#006BB2" d="M877.829,171.144c0,3.499-0.632,6.681-1.895,9.553c-1.263,2.863-3,5.063-5.208,6.599
			c-2.216,1.535-4.756,2.304-7.629,2.304c-3.332,0-5.973-0.993-7.927-2.975c-1.96-1.987-2.94-4.685-2.94-8.103
			c0-3.446,0.62-6.608,1.858-9.486c1.239-2.878,2.977-5.119,5.208-6.721c2.24-1.599,4.816-2.404,7.753-2.404
			c3.376,0,6.023,1.008,7.927,3.014C876.878,164.931,877.829,167.677,877.829,171.144z M871.667,170.883
			c0-1.856-0.429-3.309-1.277-4.355c-0.845-1.051-2.052-1.572-3.635-1.572c-1.616,0-3.056,0.614-4.329,1.857
			c-1.27,1.239-2.264,2.918-2.965,5.041c-0.696,2.125-1.055,4.387-1.055,6.798c0,1.924,0.431,3.4,1.29,4.42
			c0.857,1.022,2.124,1.535,3.806,1.535c1.563,0,2.967-0.59,4.213-1.767c1.242-1.185,2.218-2.831,2.912-4.95
			C871.324,175.766,871.667,173.427,871.667,170.883z"/>
		<path fill="#006BB2" d="M903.289,180.287c0,3-1.023,5.311-3.064,6.928c-2.046,1.622-4.886,2.433-8.527,2.433
			c-3.292,0-6.08-0.583-8.372-1.74v-5.278c2.651,1.562,5.358,2.337,8.111,2.337c1.68,0,3.039-0.345,4.081-1.039
			c1.041-0.696,1.561-1.641,1.561-2.835c0-0.884-0.299-1.644-0.9-2.27c-0.593-0.638-1.816-1.482-3.674-2.537
			c-2.163-1.163-3.69-2.34-4.591-3.548c-0.892-1.204-1.34-2.63-1.34-4.274c0-2.683,0.93-4.791,2.785-6.314
			c1.847-1.523,4.354-2.286,7.507-2.286c3.401,0,6.396,0.727,8.991,2.182l-1.971,4.574c-2.428-1.319-4.732-1.975-6.915-1.975
			c-1.266,0-2.292,0.288-3.081,0.855c-0.785,0.572-1.185,1.368-1.185,2.391c0,0.777,0.289,1.473,0.857,2.081
			c0.567,0.608,1.745,1.383,3.512,2.338c1.813,1.024,3.11,1.897,3.871,2.624c0.763,0.73,1.344,1.519,1.742,2.38
			C903.09,178.17,903.289,179.166,903.289,180.287z"/>
		<path fill="#006BB2" d="M950.093,155.909c-2.666,0-5.045,0.768-7.144,2.313c-2.099,1.542-3.771,3.791-5.032,6.742
			c-1.257,2.958-1.883,6.204-1.883,9.739c0,3.118,0.713,5.506,2.147,7.161c1.429,1.654,3.539,2.48,6.326,2.48
			c2.443,0,5.295-0.587,8.55-1.768v5.327c-3.124,1.163-6.363,1.744-9.72,1.744c-4.296,0-7.669-1.29-10.097-3.864
			c-2.438-2.576-3.652-6.184-3.652-10.824c0-4.504,0.911-8.691,2.733-12.555c1.831-3.866,4.272-6.801,7.32-8.813
			c3.05-2.009,6.532-3.017,10.452-3.017c3.759,0,7.126,0.802,10.112,2.394l-2.449,5.071c-1.093-0.593-2.248-1.094-3.483-1.507
			C953.041,156.119,951.658,155.909,950.093,155.909z"/>
		<path fill="#006BB2" d="M981.303,159.86c1.071,0,2.011,0.104,2.808,0.313l-1.329,5.691c-0.937-0.245-1.815-0.365-2.646-0.365
			c-2.183,0-4.134,0.978-5.847,2.935c-1.72,1.96-2.912,4.52-3.592,7.696l-2.755,12.997h-6.135l6.135-28.75h4.782l-0.545,5.327h0.237
			c1.435-2.079,2.879-3.574,4.315-4.483C978.165,160.316,979.694,159.86,981.303,159.86z"/>
		<path fill="#006BB2" d="M998.29,189.647c-3.415,0-6.078-0.96-7.998-2.889c-1.911-1.921-2.869-4.606-2.869-8.058
			c0-3.431,0.671-6.627,2.015-9.575c1.342-2.953,3.163-5.241,5.459-6.849c2.3-1.616,4.868-2.413,7.704-2.413
			c2.794,0,4.961,0.622,6.515,1.882c1.55,1.255,2.325,3.033,2.325,5.342c0,3.155-1.446,5.618-4.326,7.396
			c-2.887,1.778-6.996,2.664-12.334,2.664h-1.12l-0.06,0.81v0.753c0,1.922,0.498,3.436,1.472,4.522
			c0.98,1.093,2.443,1.64,4.381,1.64c1.25,0,2.486-0.167,3.714-0.495c1.237-0.337,2.69-0.896,4.371-1.696v4.862
			c-1.665,0.757-3.193,1.306-4.585,1.622C1001.559,189.486,1000.005,189.647,998.29,189.647z M1002.238,164.536
			c-1.658,0-3.224,0.747-4.69,2.234c-1.468,1.493-2.519,3.458-3.158,5.904h0.753c3.258,0,5.807-0.463,7.647-1.388
			c1.835-0.933,2.747-2.245,2.747-3.939c0-0.887-0.272-1.576-0.831-2.07C1004.154,164.788,1003.33,164.536,1002.238,164.536z"/>
		<path fill="#006BB2" d="M1028.733,189.647c-3.398,0-6.034-0.917-7.903-2.758c-1.87-1.833-2.807-4.459-2.807-7.873
			c0-3.587,0.631-6.848,1.913-9.79c1.27-2.936,3.062-5.231,5.364-6.886c2.309-1.656,4.923-2.48,7.854-2.48
			c2.841,0,5.414,0.529,7.722,1.586l-1.822,4.781c-2.114-0.919-4.028-1.374-5.749-1.374c-2.598,0-4.767,1.331-6.495,3.989
			c-1.732,2.661-2.6,5.947-2.6,9.868c0,1.922,0.487,3.407,1.45,4.44c0.969,1.042,2.314,1.561,4.03,1.561
			c1.28,0,2.48-0.185,3.6-0.573c1.116-0.381,2.24-0.851,3.367-1.404v5.071C1034.239,189.033,1031.596,189.647,1028.733,189.647z"/>
		<path fill="#006BB2" d="M1056.349,189.647c-3.404,0-6.073-0.96-7.987-2.889c-1.912-1.921-2.874-4.606-2.874-8.058
			c0-3.431,0.674-6.627,2.017-9.575c1.345-2.953,3.162-5.241,5.455-6.849c2.298-1.616,4.867-2.413,7.711-2.413
			c2.787,0,4.959,0.622,6.511,1.882c1.551,1.255,2.327,3.033,2.327,5.342c0,3.155-1.446,5.618-4.33,7.396
			c-2.888,1.778-7,2.664-12.334,2.664h-1.121l-0.051,0.81v0.753c0,1.922,0.49,3.436,1.462,4.522c0.983,1.093,2.444,1.64,4.384,1.64
			c1.249,0,2.488-0.167,3.721-0.495c1.229-0.337,2.686-0.896,4.365-1.696v4.862c-1.663,0.757-3.193,1.306-4.594,1.622
			C1059.621,189.486,1058.07,189.647,1056.349,189.647z M1060.302,164.536c-1.657,0-3.221,0.747-4.69,2.234
			c-1.465,1.493-2.517,3.458-3.155,5.904h0.752c3.256,0,5.803-0.463,7.638-1.388c1.838-0.933,2.761-2.245,2.761-3.939
			c0-0.887-0.281-1.576-0.833-2.07C1062.222,164.788,1061.399,164.536,1060.302,164.536z"/>
		<path fill="#006BB2" d="M1094.622,159.86c3.814,0,6.015,2.033,6.607,6.111h0.207c1.294-2.011,2.775-3.531,4.432-4.563
			c1.657-1.03,3.376-1.545,5.162-1.545c2.309,0,4.062,0.663,5.26,1.982c1.209,1.326,1.807,3.196,1.807,5.602
			c0,1.113-0.189,2.681-0.57,4.707l-3.645,16.973h-6.105l3.714-17.47c0.338-1.647,0.497-2.799,0.497-3.455
			c0-2.24-1.048-3.355-3.144-3.355c-1.872,0-3.615,1.076-5.236,3.223c-1.622,2.147-2.803,5-3.546,8.55l-2.628,12.502h-6.107
			l3.716-17.469c0.296-1.42,0.444-2.522,0.444-3.297c0-2.34-1.015-3.513-3.043-3.513c-1.907,0-3.667,1.104-5.292,3.303
			c-1.625,2.199-2.821,5.129-3.6,8.787l-2.548,12.189h-6.132l6.132-28.75h4.783l-0.547,5.327h0.234
			C1088.041,161.81,1091.09,159.86,1094.622,159.86z"/>
		<path fill="#006BB2" d="M1151.644,171.144c0,3.499-0.631,6.681-1.899,9.553c-1.264,2.863-2.999,5.063-5.205,6.599
			c-2.213,1.535-4.752,2.304-7.631,2.304c-3.329,0-5.967-0.993-7.926-2.975c-1.959-1.987-2.937-4.685-2.937-8.103
			c0-3.446,0.616-6.608,1.855-9.486c1.24-2.878,2.98-5.119,5.213-6.721c2.235-1.599,4.819-2.404,7.746-2.404
			c3.383,0,6.026,1.008,7.929,3.014C1150.694,164.931,1151.644,167.677,1151.644,171.144z M1145.481,170.883
			c0-1.856-0.427-3.309-1.274-4.355c-0.853-1.051-2.06-1.572-3.639-1.572c-1.611,0-3.057,0.614-4.334,1.857
			c-1.269,1.239-2.253,2.918-2.962,5.041c-0.698,2.125-1.051,4.387-1.051,6.798c0,1.924,0.425,3.4,1.288,4.42
			c0.858,1.022,2.123,1.535,3.807,1.535c1.561,0,2.963-0.59,4.208-1.767c1.247-1.185,2.225-2.831,2.911-4.95
			C1145.139,175.766,1145.481,173.427,1145.481,170.883z"/>
		<path fill="#006BB2" d="M1177.1,180.287c0,3-1.025,5.311-3.066,6.928c-2.047,1.622-4.883,2.433-8.526,2.433
			c-3.289,0-6.083-0.583-8.369-1.74v-5.278c2.646,1.562,5.357,2.337,8.108,2.337c1.68,0,3.041-0.345,4.08-1.039
			c1.037-0.696,1.559-1.641,1.559-2.835c0-0.884-0.295-1.644-0.896-2.27c-0.594-0.638-1.82-1.482-3.673-2.537
			c-2.171-1.163-3.695-2.34-4.593-3.548c-0.892-1.204-1.339-2.63-1.339-4.274c0-2.683,0.928-4.791,2.783-6.314
			c1.849-1.523,4.355-2.286,7.508-2.286c3.401,0,6.397,0.727,8.993,2.182l-1.977,4.574c-2.424-1.319-4.729-1.975-6.912-1.975
			c-1.261,0-2.294,0.288-3.078,0.855c-0.784,0.572-1.185,1.368-1.185,2.391c0,0.777,0.289,1.473,0.856,2.081
			c0.566,0.608,1.742,1.383,3.512,2.338c1.815,1.024,3.109,1.897,3.871,2.624c0.764,0.73,1.343,1.519,1.741,2.38
			C1176.904,178.17,1177.1,179.166,1177.1,180.287z"/>
		<path fill="#006BB2" d="M1216.711,189.127l-2.987-31.554h-0.155c-0.156,2.048-0.633,4.99-1.428,8.836l-4.784,22.718h-5.694
			l8.028-37.999h8.397l2.834,29.866h0.153l15.755-29.866h8.94l-7.924,37.999h-5.902l4.731-22.667
			c0.675-3.223,1.419-6.188,2.234-8.885h-0.151l-16.716,31.552H1216.711L1216.711,189.127z"/>
		<path fill="#006BB2" d="M1258.591,189.647c-2.438,0-4.367-0.881-5.795-2.64c-1.416-1.761-2.135-4.232-2.135-7.422
			c0-3.5,0.605-6.776,1.81-9.823c1.203-3.051,2.86-5.463,4.976-7.238c2.115-1.78,4.432-2.662,6.966-2.662
			c1.686,0,3.128,0.39,4.339,1.183c1.216,0.783,2.158,1.935,2.835,3.442h0.261l1.614-4.106h4.678l-6.136,28.753h-4.729l0.543-4.576
			h-0.15C1264.932,187.948,1261.904,189.647,1258.591,189.647z M1260.833,184.714c1.42,0,2.813-0.674,4.186-2.019
			c1.366-1.344,2.493-3.144,3.376-5.394c0.885-2.252,1.331-4.715,1.331-7.387c0-1.522-0.416-2.752-1.221-3.674
			c-0.815-0.932-1.88-1.392-3.197-1.392c-1.475,0-2.862,0.667-4.163,2.005c-1.305,1.337-2.338,3.149-3.118,5.448
			c-0.78,2.292-1.177,4.674-1.177,7.134c0,1.771,0.353,3.087,1.056,3.966C1258.613,184.271,1259.584,184.714,1260.833,184.714z
			 M1263.772,156.223c1.685-1.872,3.636-4.501,5.852-7.88h6.859v0.496c-0.938,1.145-2.304,2.544-4.109,4.199
			c-1.801,1.656-3.322,2.932-4.549,3.833h-4.053V156.223L1263.772,156.223z"/>
		<path fill="#006BB2" d="M1302.045,180.287c0,3-1.021,5.311-3.07,6.928c-2.047,1.622-4.888,2.433-8.524,2.433
			c-3.293,0-6.08-0.583-8.368-1.74v-5.278c2.647,1.562,5.352,2.337,8.107,2.337c1.685,0,3.044-0.345,4.084-1.039
			c1.039-0.696,1.558-1.641,1.558-2.835c0-0.884-0.298-1.644-0.896-2.27c-0.6-0.638-1.821-1.482-3.678-2.537
			c-2.168-1.163-3.696-2.34-4.592-3.548c-0.892-1.204-1.334-2.63-1.334-4.274c0-2.683,0.928-4.791,2.776-6.314
			c1.853-1.523,4.355-2.286,7.507-2.286c3.401,0,6.398,0.727,9,2.182l-1.977,4.574c-2.426-1.319-4.731-1.975-6.91-1.975
			c-1.269,0-2.296,0.288-3.086,0.855c-0.787,0.572-1.178,1.368-1.178,2.391c0,0.777,0.282,1.473,0.854,2.081
			c0.566,0.608,1.738,1.383,3.507,2.338c1.822,1.024,3.111,1.897,3.876,2.624c0.759,0.73,1.345,1.519,1.739,2.38
			C1301.843,178.17,1302.045,179.166,1302.045,180.287z"/>
	</g>
	<g>
		<path fill="#FFFFFF" d="M1319.937,127.649c0-1.384,0.371-2.427,1.104-3.14c0.747-0.703,1.824-1.056,3.243-1.056
			c1.365,0,2.423,0.361,3.171,1.085s1.122,1.764,1.122,3.111c0,1.3-0.382,2.323-1.138,3.075c-0.755,0.753-1.813,1.127-3.155,1.127
			c-1.385,0-2.456-0.368-3.214-1.104C1320.316,130.016,1319.937,128.983,1319.937,127.649z"/>
		<path fill="#FFFFFF" d="M1346.637,131.675c-8.589,0-12.892-4.719-12.892-14.158c0-4.694,1.167-8.281,3.503-10.758
			c2.343-2.476,5.695-3.716,10.061-3.716c3.193,0,6.06,0.625,8.6,1.874l-2.224,5.833c-1.189-0.48-2.287-0.868-3.313-1.176
			c-1.025-0.305-2.046-0.453-3.063-0.453c-3.926,0-5.881,2.783-5.881,8.351c0,5.4,1.963,8.103,5.881,8.103
			c1.451,0,2.792-0.192,4.023-0.582c1.24-0.386,2.473-0.995,3.705-1.813v6.45c-1.216,0.772-2.448,1.303-3.691,1.601
			C1350.105,131.523,1348.537,131.675,1346.637,131.675z"/>
		<path fill="#FFFFFF" d="M1386.541,117.326c0,4.497-1.186,8.015-3.562,10.55c-2.365,2.536-5.669,3.8-9.901,3.8
			c-2.649,0-4.989-0.58-7.014-1.737c-2.025-1.16-3.58-2.83-4.671-5.006c-1.087-2.175-1.631-4.711-1.631-7.609
			c0-4.513,1.184-8.021,3.536-10.523c2.354-2.502,5.66-3.755,9.933-3.755c2.65,0,4.99,0.575,7.015,1.729
			c2.022,1.153,3.582,2.808,4.671,4.962C1385.995,111.895,1386.541,114.424,1386.541,117.326z M1367.442,117.326
			c0,2.727,0.451,4.8,1.352,6.199c0.895,1.399,2.356,2.099,4.384,2.099c2.011,0,3.45-0.695,4.334-2.086
			c0.886-1.392,1.327-3.468,1.327-6.212c0-2.737-0.444-4.784-1.333-6.152c-0.896-1.367-2.352-2.047-4.377-2.047
			c-2.011,0-3.465,0.68-4.354,2.04C1367.889,112.517,1367.442,114.573,1367.442,117.326z"/>
		<path fill="#FFFFFF" d="M1417.498,131.179h-7.533V115.05c0-1.993-0.336-3.486-1-4.482c-0.668-0.996-1.718-1.496-3.148-1.496
			c-1.932,0-3.331,0.709-4.203,2.126c-0.875,1.417-1.311,3.747-1.311,6.996v12.993h-7.536v-27.621h5.758l1.013,3.53h0.42
			c0.742-1.27,1.813-2.262,3.214-2.977c1.401-0.717,3.005-1.076,4.815-1.076c4.132,0,6.933,1.35,8.402,4.047h0.667
			c0.743-1.282,1.835-2.28,3.271-2.989c1.442-0.708,3.069-1.059,4.88-1.059c3.13,0,5.5,0.799,7.104,2.407
			c1.604,1.604,2.405,4.18,2.405,7.718v18.011h-7.563v-16.132c0-1.994-0.334-3.489-0.999-4.483c-0.668-0.996-1.72-1.495-3.151-1.495
			c-1.85,0-3.224,0.659-4.139,1.973c-0.916,1.32-1.37,3.411-1.37,6.28v13.855H1417.498z"/>
	</g>
</g>
<g>
	<path fill="#FFFFFF" d="M1440.617,128.058c0-1.438,0.385-2.524,1.155-3.261c0.77-0.735,1.891-1.104,3.362-1.104
		c1.421,0,2.521,0.377,3.3,1.13c0.778,0.753,1.168,1.832,1.168,3.235c0,1.352-0.395,2.417-1.182,3.196
		c-0.787,0.779-1.883,1.168-3.286,1.168c-1.438,0-2.55-0.381-3.337-1.143S1440.617,129.444,1440.617,128.058z"/>
	<path fill="#FFFFFF" d="M1474.94,131.729l-1.515-3.902h-0.205c-1.318,1.661-2.675,2.811-4.069,3.453
		c-1.396,0.642-3.214,0.963-5.455,0.963c-2.756,0-4.926-0.787-6.509-2.362c-1.583-1.574-2.374-3.816-2.374-6.726
		c0-3.046,1.065-5.292,3.196-6.739s5.344-2.246,9.64-2.4l4.98-0.154v-1.258c0-2.909-1.489-4.364-4.467-4.364
		c-2.294,0-4.989,0.693-8.087,2.08l-2.593-5.289c3.303-1.729,6.966-2.593,10.987-2.593c3.851,0,6.804,0.839,8.857,2.516
		s3.08,4.227,3.08,7.65v19.126H1474.94z M1472.63,118.43l-3.029,0.103c-2.276,0.068-3.971,0.479-5.083,1.232
		c-1.113,0.753-1.669,1.9-1.669,3.44c0,2.208,1.267,3.312,3.8,3.312c1.813,0,3.264-0.522,4.352-1.566
		c1.086-1.044,1.63-2.43,1.63-4.159V118.43z"/>
	<path fill="#FFFFFF" d="M1504.489,102.488c1.062,0,1.942,0.077,2.645,0.231l-0.591,7.342c-0.633-0.171-1.403-0.256-2.311-0.256
		c-2.499,0-4.445,0.642-5.84,1.925c-1.396,1.284-2.093,3.081-2.093,5.391v14.607h-7.83v-28.702h5.931l1.155,4.827h0.385
		c0.89-1.609,2.093-2.905,3.607-3.89C1501.063,102.98,1502.709,102.488,1504.489,102.488z"/>
</g>
</svg>
