<?xml version="1.0" encoding="utf-8"?>
<!-- Generator: Adobe Illustrator 16.0.0, SVG Export Plug-In . SVG Version: 6.00 Build 0)  -->
<!DOCTYPE svg PUBLIC "-//W3C//DTD SVG 1.1//EN" "http://www.w3.org/Graphics/SVG/1.1/DTD/svg11.dtd">
<svg version="1.1" id="Layer_1" xmlns="http://www.w3.org/2000/svg" xmlns:xlink="http://www.w3.org/1999/xlink" x="0px" y="0px"
	 width="359px" height="46px" viewBox="0 0 359 46" enable-background="new 0 0 359 46" xml:space="preserve">
<g>
	<g>
		<path fill="#FFFFFF" d="M59.599,25.746v7.029h-4.772V13.683h5.145c2.043,0,3.558,0.222,4.547,0.666
			c0.99,0.443,1.485,1.349,1.485,2.716v5.299c0,1.251-0.403,2.137-1.212,2.655C63.982,25.539,62.251,25.781,59.599,25.746z
			 M61.23,22.004v-4.58c0-0.674-0.543-1.012-1.632-1.012v6.604C60.688,23.016,61.23,22.679,61.23,22.004z"/>
		<path fill="#FFFFFF" d="M66.843,29.514v-12.29c0-2.477,1.872-3.714,5.62-3.714c3.693,0,5.541,1.229,5.541,3.688v12.29
			c0,1.109-0.515,1.964-1.545,2.562c-1.029,0.6-2.372,0.899-4.028,0.899C68.705,32.949,66.843,31.803,66.843,29.514z M73.232,29.713
			V16.705c0-0.381-0.265-0.573-0.793-0.573c-0.55,0-0.824,0.191-0.824,0.573v13.008c0,0.382,0.274,0.573,0.824,0.573
			C72.968,30.286,73.232,30.095,73.232,29.713z"/>
		<path fill="#FFFFFF" d="M91.139,32.802h-4.896c-0.528-0.541-0.792-2.077-0.792-4.606v-0.027l0.03-1.145
			c0.031-1.59,0.047-2.4,0.047-2.437c0-0.647-0.508-0.972-1.523-0.972v9.16h-4.896V13.683h6.047c1.379,0,2.578,0.27,3.599,0.812
			s1.531,1.398,1.531,2.57v2.29c0,1.482-1.011,2.485-3.03,3.009c2.03,0.409,3.046,1.46,3.046,3.155l-0.078,2.09
			C90.223,30.663,90.528,32.395,91.139,32.802z M85.512,20.284v-3.15c0-0.667-0.502-1.001-1.508-1.001V21.3
			C85.01,21.299,85.512,20.96,85.512,20.284z"/>
		<path fill="#FFFFFF" d="M102.021,16.172h-2.735v16.604h-4.897V16.172h-2.735v-2.489h10.368L102.021,16.172L102.021,16.172z"/>
		<path fill="#FFFFFF" d="M116.182,32.775h-4.852l-0.826-5.125h-2.174l-0.836,5.125h-4.852l3.662-19.092h6.209L116.182,32.775z
			 M110.109,25l-0.705-5.698L108.737,25H110.109z"/>
		<path fill="#FFFFFF" d="M126.193,32.775h-9.188V13.683h4.897v16.643h4.291V32.775L126.193,32.775z"/>
	</g>
	<g>
		<path fill="#FFFFFF" d="M149.681,32.775h-4.367V22.057l-2.55,10.718h-3.373l-2.922-10.718v10.718h-3.824V13.683h6.295l2.238,9.905
			l1.943-9.905h6.56V32.775L149.681,32.775z"/>
		<path fill="#FFFFFF" d="M155.588,32.775h-4.896V13.683h4.896V32.775z"/>
		<path fill="#FFFFFF" d="M167.278,20.353h-4.446v-3.781c0-0.312-0.225-0.466-0.676-0.466c-0.472,0-0.708,0.156-0.708,0.466V29.82
			c0,0.311,0.236,0.466,0.708,0.466c0.451,0,0.676-0.155,0.676-0.466v-4.715h4.446v4.848c0,0.904-0.519,1.631-1.555,2.176
			c-1.036,0.547-2.208,0.819-3.513,0.819c-3.773,0-5.658-1.146-5.658-3.437V17.224c0-2.477,1.885-3.714,5.658-3.714
			c3.378,0,5.067,1.127,5.067,3.382L167.278,20.353L167.278,20.353z"/>
		<path fill="#FFFFFF" d="M180.443,32.802h-4.896c-0.529-0.541-0.793-2.077-0.793-4.606v-0.027l0.032-1.145
			c0.03-1.59,0.045-2.4,0.045-2.437c0-0.647-0.507-0.972-1.522-0.972v9.16h-4.896V13.683h6.045c1.379,0,2.579,0.27,3.6,0.812
			c1.02,0.542,1.531,1.398,1.531,2.57v2.29c0,1.482-1.009,2.485-3.031,3.009c2.031,0.409,3.047,1.46,3.047,3.155l-0.078,2.09
			C179.527,30.663,179.834,32.395,180.443,32.802z M174.817,20.284v-3.15c0-0.667-0.503-1.001-1.508-1.001V21.3
			C174.314,21.299,174.817,20.96,174.817,20.284z"/>
		<path fill="#FFFFFF" d="M181.066,29.514v-12.29c0-2.477,1.873-3.714,5.621-3.714c3.692,0,5.539,1.229,5.539,3.688v12.29
			c0,1.109-0.515,1.964-1.543,2.562c-1.029,0.6-2.373,0.899-4.029,0.899C182.93,32.949,181.066,31.803,181.066,29.514z
			 M187.455,29.713V16.705c0-0.381-0.264-0.573-0.792-0.573c-0.55,0-0.824,0.191-0.824,0.573v13.008
			c0,0.382,0.274,0.573,0.824,0.573C187.191,30.286,187.455,30.095,187.455,29.713z"/>
		<path fill="#FFFFFF" d="M202.846,32.775h-9.576V13.683h9.515v2.449h-4.617v5.167h4.166v2.316h-4.166v6.71h4.681v2.45H202.846z"/>
		<path fill="#FFFFFF" d="M220.707,32.775h-4.369V22.057l-2.549,10.718h-3.373l-2.923-10.718v10.718h-3.823V13.683h6.295
			l2.238,9.905l1.943-9.905h6.561V32.775z"/>
		<path fill="#FFFFFF" d="M226.566,25.746v7.029h-4.771V13.683h5.145c2.043,0,3.559,0.222,4.547,0.666
			c0.99,0.443,1.486,1.349,1.486,2.716v5.299c0,1.251-0.404,2.137-1.214,2.655C230.951,25.539,229.221,25.781,226.566,25.746z
			 M228.199,22.004v-4.58c0-0.674-0.545-1.012-1.633-1.012v6.604C227.654,23.016,228.199,22.679,228.199,22.004z"/>
		<path fill="#FFFFFF" d="M245.951,32.802h-4.896c-0.527-0.541-0.793-2.077-0.793-4.606v-0.027l0.031-1.145
			c0.03-1.59,0.047-2.4,0.047-2.437c0-0.647-0.508-0.972-1.523-0.972v9.16h-4.896V13.683h6.045c1.38,0,2.58,0.27,3.601,0.812
			s1.531,1.398,1.531,2.57v2.29c0,1.482-1.011,2.485-3.031,3.009c2.031,0.409,3.047,1.46,3.047,3.155l-0.077,2.09
			C245.034,30.663,245.34,32.395,245.951,32.802z M240.323,20.284v-3.15c0-0.667-0.503-1.001-1.507-1.001V21.3
			C239.82,21.299,240.323,20.96,240.323,20.284z"/>
		<path fill="#FFFFFF" d="M256.195,32.775h-9.575V13.683h9.513v2.449h-4.615v5.167h4.166v2.316h-4.166v6.71h4.678V32.775
			L256.195,32.775z"/>
		<path fill="#FFFFFF" d="M256.988,25.133h4.445v4.381c0,0.435,0.309,0.652,0.926,0.652c0.596,0,0.894-0.218,0.894-0.652V27.25
			c0-0.691-0.54-1.504-1.616-2.438c-2.084-1.729-3.379-2.893-3.887-3.487c-0.508-0.594-0.762-1.248-0.762-1.957v-2.144
			c0-2.477,1.889-3.714,5.667-3.714c3.384,0,5.075,1.127,5.075,3.382v3.302h-4.446v-3.515c0-0.381-0.249-0.573-0.745-0.573
			c-0.581,0-0.872,0.369-0.872,1.105l0.095,1.239c0,0.709,0.549,1.535,1.651,2.476c2.046,1.678,3.347,2.85,3.901,3.516
			c0.556,0.664,0.834,1.42,0.834,2.264v2.438c0,2.539-1.894,3.808-5.683,3.808c-3.651,0-5.479-1.153-5.479-3.462v-4.355H256.988z"/>
		<path fill="#FFFFFF" d="M282.42,32.775h-4.854l-0.824-5.125h-2.176l-0.836,5.125h-4.852l3.662-19.092h6.208L282.42,32.775z
			 M276.348,25l-0.705-5.698L274.975,25H276.348z"/>
		<path fill="#FFFFFF" d="M295.291,32.802h-4.896c-0.527-0.541-0.793-2.077-0.793-4.606v-0.027l0.031-1.145
			c0.031-1.59,0.047-2.4,0.047-2.437c0-0.647-0.508-0.972-1.522-0.972v9.16h-4.896V13.683h6.048c1.377,0,2.577,0.27,3.599,0.812
			c1.021,0.542,1.53,1.398,1.53,2.57v2.29c0,1.482-1.011,2.485-3.031,3.009c2.031,0.409,3.048,1.46,3.048,3.155l-0.078,2.09
			C294.374,30.663,294.68,32.395,295.291,32.802z M289.664,20.284v-3.15c0-0.667-0.504-1.001-1.508-1.001V21.3
			C289.16,21.299,289.664,20.96,289.664,20.284z"/>
		<path fill="#FFFFFF" d="M300.777,32.775h-4.896V13.683h4.896V32.775z"/>
		<path fill="#FFFFFF" d="M301.712,29.514v-12.29c0-2.477,1.873-3.714,5.619-3.714c3.694,0,5.542,1.229,5.542,3.688v12.29
			c0,1.109-0.516,1.964-1.545,2.562c-1.029,0.6-2.373,0.899-4.029,0.899C303.574,32.949,301.712,31.803,301.712,29.514z
			 M308.102,29.713V16.705c0-0.381-0.266-0.573-0.793-0.573c-0.551,0-0.824,0.191-0.824,0.573v13.008
			c0,0.382,0.273,0.573,0.824,0.573C307.836,30.286,308.102,30.095,308.102,29.713z"/>
		<path fill="#FFFFFF" d="M313.898,25.133h4.444v4.381c0,0.435,0.31,0.652,0.927,0.652c0.596,0,0.893-0.218,0.893-0.652V27.25
			c0-0.691-0.538-1.504-1.616-2.438c-2.083-1.729-3.378-2.893-3.886-3.487c-0.508-0.594-0.762-1.248-0.762-1.957v-2.144
			c0-2.477,1.889-3.714,5.666-3.714c3.384,0,5.076,1.127,5.076,3.382v3.302h-4.447v-3.515c0-0.381-0.248-0.573-0.744-0.573
			c-0.581,0-0.873,0.369-0.873,1.105l0.094,1.239c0,0.709,0.551,1.535,1.652,2.476c2.047,1.678,3.348,2.85,3.902,3.516
			c0.557,0.666,0.834,1.42,0.834,2.264v2.438c0,2.539-1.895,3.808-5.683,3.808c-3.651,0-5.479-1.153-5.479-3.462v-4.355H313.898z"/>
	</g>
	<path fill="#FFFFFF" d="M40.836,19.69"/>
	<path fill="#FFFFFF" d="M40.836,20.026c0,0-1.004-7.799-8.804-7.883c-7.8-0.084-17.193,3.941-18.114,13.753
		c0,0,0.335,7.547,11.992,6.877c0,0,7.129-0.42,11.154-3.606c0,0-5.368,5.703-16.104,5.451c0,0-9.979-0.755-10.65-8.806
		c-0.669-8.05,13.906-16.748,22.896-15.515c11.049,1.515,11.657,8.554,11.741,9.392L40.836,20.026z"/>
	<path fill="#FFFFFF" d="M8.803,22.095c0,0,3.475-8.722,14.819-11.629c0,0-7.517-0.212-14.819,5.814
		C8.803,16.28,8.307,21.174,8.803,22.095z"/>
	<path fill="#FFFFFF" d="M46.04,21.981c0,0-2.985,8.9-14.149,12.434c0,0,7.516-0.205,14.472-6.628
		C46.362,27.786,46.587,22.873,46.04,21.981z"/>
	<polygon fill="#FFFFFF" points="35.108,13.923 20.91,23.282 26.598,24.729 21.175,31.046 23.622,32.536 27.88,25.916 
		30.641,30.036 	"/>
</g>
<g>
	<path fill="#FFFFFF" d="M327.548,31.749c0-0.338,0.091-0.593,0.271-0.767c0.182-0.172,0.445-0.258,0.791-0.258
		c0.334,0,0.592,0.088,0.774,0.265s0.274,0.431,0.274,0.76c0,0.317-0.094,0.567-0.277,0.751c-0.186,0.184-0.443,0.275-0.771,0.275
		c-0.338,0-0.6-0.09-0.784-0.27C327.641,32.327,327.548,32.075,327.548,31.749z"/>
	<path fill="#FFFFFF" d="M334.068,32.732c-2.098,0-3.148-1.152-3.148-3.457c0-1.146,0.285-2.022,0.855-2.627
		c0.572-0.605,1.391-0.908,2.457-0.908c0.779,0,1.479,0.152,2.1,0.458l-0.543,1.424c-0.29-0.117-0.559-0.212-0.809-0.287
		c-0.25-0.074-0.5-0.11-0.748-0.11c-0.959,0-1.437,0.68-1.437,2.039c0,1.318,0.479,1.979,1.437,1.979
		c0.354,0,0.682-0.047,0.982-0.143c0.303-0.094,0.604-0.242,0.905-0.442v1.575c-0.298,0.188-0.599,0.318-0.902,0.392
		C334.915,32.695,334.532,32.732,334.068,32.732z"/>
	<path fill="#FFFFFF" d="M343.812,29.229c0,1.098-0.289,1.957-0.869,2.576c-0.578,0.619-1.385,0.928-2.418,0.928
		c-0.647,0-1.219-0.142-1.713-0.424c-0.494-0.283-0.875-0.691-1.141-1.223s-0.398-1.15-0.398-1.857c0-1.103,0.289-1.959,0.863-2.57
		c0.575-0.611,1.383-0.917,2.426-0.917c0.647,0,1.219,0.141,1.713,0.422c0.494,0.282,0.875,0.687,1.141,1.212
		C343.68,27.902,343.812,28.52,343.812,29.229z M339.148,29.229c0,0.666,0.11,1.172,0.33,1.514c0.219,0.342,0.576,0.513,1.07,0.513
		c0.491,0,0.844-0.17,1.059-0.51c0.217-0.34,0.324-0.847,0.324-1.517c0-0.668-0.108-1.168-0.326-1.502
		c-0.219-0.334-0.573-0.5-1.068-0.5c-0.491,0-0.846,0.166-1.062,0.498C339.258,28.055,339.148,28.557,339.148,29.229z"/>
	<path fill="#FFFFFF" d="M351.372,32.611h-1.84v-3.938c0-0.487-0.082-0.853-0.244-1.095c-0.163-0.243-0.419-0.365-0.769-0.365
		c-0.472,0-0.813,0.173-1.026,0.52c-0.214,0.346-0.32,0.914-0.32,1.707v3.174h-1.84v-6.745h1.406l0.247,0.862h0.103
		c0.181-0.311,0.442-0.553,0.785-0.728c0.342-0.175,0.733-0.263,1.176-0.263c1.009,0,1.693,0.33,2.052,0.988h0.162
		c0.182-0.312,0.448-0.557,0.799-0.729c0.353-0.173,0.75-0.259,1.192-0.259c0.765,0,1.343,0.195,1.734,0.588
		c0.392,0.392,0.588,1.021,0.588,1.885v4.398h-1.847v-3.939c0-0.486-0.082-0.852-0.244-1.095c-0.163-0.243-0.42-0.365-0.77-0.365
		c-0.451,0-0.787,0.161-1.011,0.481c-0.224,0.322-0.334,0.834-0.334,1.533V32.611z"/>
</g>
</svg>
